<?xml version="1.0" encoding="UTF-8" standalone="no"?>
<!DOCTYPE svg PUBLIC "-//W3C//DTD SVG 1.1//EN"
 "http://www.w3.org/Graphics/SVG/1.1/DTD/svg11.dtd">
<!-- Generated by graphviz version 2.47.0 (20210316.0004)
 -->
<!-- Title: dependencies Pages: 1 -->
<svg width="504pt" height="211pt"
 viewBox="0.00 0.00 504.00 211.00" xmlns="http://www.w3.org/2000/svg" xmlns:xlink="http://www.w3.org/1999/xlink">
<g id="graph0" class="graph" transform="scale(1 1) rotate(0) translate(4 207)">
<title>dependencies</title>
<polygon fill="white" stroke="transparent" points="-4,4 -4,-207 500,-207 500,4 -4,4"/>
<text text-anchor="start" x="227.01" y="-42.4" font-family="Times-12" font-weight="bold" font-size="14.00">Legend</text>
<polygon fill="#ffffb3" stroke="transparent" points="14,-10 14,-30 34,-30 34,-10 14,-10"/>
<text text-anchor="start" x="37.63" y="-15.4" font-family="Times-12" font-size="14.00"> &#160;Declarations</text>
<polygon fill="#8dd3c7" stroke="transparent" points="127,-10 127,-30 147,-30 147,-10 127,-10"/>
<text text-anchor="start" x="150.73" y="-15.4" font-family="Times-12" font-size="14.00"> &#160;Module</text>
<polygon fill="#80b1d3" stroke="transparent" points="213,-10 213,-30 233,-30 233,-10 213,-10"/>
<text text-anchor="start" x="236.78" y="-15.4" font-family="Times-12" font-size="14.00"> &#160;Bootstrap</text>
<polygon fill="#fdb462" stroke="transparent" points="310,-10 310,-30 330,-30 330,-10 310,-10"/>
<text text-anchor="start" x="333.67" y="-15.4" font-family="Times-12" font-size="14.00"> &#160;Providers</text>
<polygon fill="#fb8072" stroke="transparent" points="406,-10 406,-30 426,-30 426,-10 406,-10"/>
<text text-anchor="start" x="429.73" y="-15.4" font-family="Times-12" font-size="14.00"> &#160;Exports</text>
<g id="clust13" class="cluster">
<title>cluster_CliModule</title>
<polygon fill="none" stroke="black" stroke-dasharray="1,5" points="39,-70 39,-195 457,-195 457,-70 39,-70"/>
</g>
<g id="clust16" class="cluster">
<title>cluster_CliModule_exports</title>
<polygon fill="none" stroke="black" points="47,-135 47,-187 449,-187 449,-135 47,-135"/>
</g>
<!-- CreateSystemPermissionsCli  -->
<g id="node1" class="node">
<title>CreateSystemPermissionsCli </title>
<polygon fill="#fb8072" stroke="black" points="441.04,-179 258.96,-179 258.96,-143 441.04,-143 441.04,-179"/>
<text text-anchor="middle" x="350" y="-156.8" font-family="Times,serif" font-size="14.00">CreateSystemPermissionsCli </text>
</g>
<!-- CreateUserCli  -->
<g id="node2" class="node">
<title>CreateUserCli </title>
<polygon fill="#fb8072" stroke="black" points="240.58,-179 141.42,-179 141.42,-143 240.58,-143 240.58,-179"/>
<text text-anchor="middle" x="191" y="-156.8" font-family="Times,serif" font-size="14.00">CreateUserCli </text>
</g>
<!-- SetupCli  -->
<g id="node3" class="node">
<title>SetupCli </title>
<polygon fill="#fb8072" stroke="black" points="123.01,-179 54.99,-179 54.99,-143 123.01,-143 123.01,-179"/>
<text text-anchor="middle" x="89" y="-156.8" font-family="Times,serif" font-size="14.00">SetupCli </text>
</g>
<!-- CliModule -->
<g id="node4" class="node">
<title>CliModule</title>
<polygon fill="#8dd3c7" stroke="black" points="229.17,-114 226.17,-118 205.17,-118 202.17,-114 152.83,-114 152.83,-78 229.17,-78 229.17,-114"/>
<text text-anchor="middle" x="191" y="-91.8" font-family="Times,serif" font-size="14.00">CliModule</text>
</g>
<!-- CliModule&#45;&gt;CreateSystemPermissionsCli  -->
<g id="edge1" class="edge">
<title>CliModule&#45;&gt;CreateSystemPermissionsCli </title>
<path fill="none" stroke="black" stroke-dasharray="5,2" d="M229.49,-96C276.55,-96 350,-96 350,-96 350,-96 350,-132.89 350,-132.89"/>
<polygon fill="black" stroke="black" points="346.5,-132.89 350,-142.89 353.5,-132.89 346.5,-132.89"/>
</g>
<!-- CliModule&#45;&gt;CreateUserCli  -->
<g id="edge2" class="edge">
<title>CliModule&#45;&gt;CreateUserCli </title>
<path fill="none" stroke="black" stroke-dasharray="5,2" d="M191,-114.11C191,-114.11 191,-132.99 191,-132.99"/>
<polygon fill="black" stroke="black" points="187.5,-132.99 191,-142.99 194.5,-132.99 187.5,-132.99"/>
</g>
<!-- CliModule&#45;&gt;SetupCli  -->
<g id="edge3" class="edge">
<title>CliModule&#45;&gt;SetupCli </title>
<path fill="none" stroke="black" stroke-dasharray="5,2" d="M152.73,-96C123.79,-96 89,-96 89,-96 89,-96 89,-132.89 89,-132.89"/>
<polygon fill="black" stroke="black" points="85.5,-132.89 89,-142.89 92.5,-132.89 85.5,-132.89"/>
</g>
</g>
</svg>
